<?xml version="1.0" encoding="utf-8"?>
<!-- Generator: Adobe Illustrator 23.0.2, SVG Export Plug-In . SVG Version: 6.00 Build 0)  -->
<svg version="1.1" id="图层_3" xmlns="http://www.w3.org/2000/svg" xmlns:xlink="http://www.w3.org/1999/xlink" x="0px" y="0px"
	 viewBox="0 0 595.3 841.9" style="enable-background:new 0 0 595.3 841.9;" xml:space="preserve">
<style type="text/css">
	.st0{opacity:0.1;}
</style>
<g class="st0">
	<path d="M318.4,397.7c0-8.8-7.2-16-16-16s-16,7.2-16,16s7.2,16,16,16S318.4,406.5,318.4,397.7z"/>
	<path d="M279,417.1c5.6,6.7,14,11,23.4,11c16.8,0,30.4-13.6,30.4-30.4s-13.6-30.4-30.4-30.4c-9.7,0-18.3,4.6-23.9,11.6
		c0,0-11.3,0.2-19.1,0.2c-26.7,0-32.6,4.2-49.1,20.3c-5.8,5.6-15.7,15.8-21.3,21.4c-18.7,18.3-19.3,26.3-19.3,52.2
		c0,36.1,0,109.8,0,130.4c-34.9-12.8-60-46.4-60-85.5V324c0.1-50.1,41.1-91,91.2-91h193.5c1.3,0,2.5,0,3.8,0.1
		c0,3.8,0,120.7,0,160.1c0,20.8-2.6,27.7-13.6,38.6c-5.2,5.1-19.7,19.7-22.2,22.2c-1.4-0.3-2.9-0.4-4.4-0.4c-12.1,0-22,9.8-22,22
		c0,12.1,9.8,22,22,22s22-9.8,22-22c0-0.7-0.1-1.4-0.2-2.1c4.3-4.3,20.3-20.2,25.6-25.5c14.9-14.9,19.4-21.4,19.4-53.1
		c0-35.4,0-132.9,0-156.6c35.3,12.6,60.8,46.4,60.8,85.9v193.5c0,50.1-41,91.1-91,91.2H207.9c0,0,0-93.8,0-136.1
		c0-14.2,3.2-19.9,12.9-29.7c4-4,12.1-12.1,16.2-16.2c8-8,11.7-9.7,25.4-9.7L279,417.1L279,417.1z"/>
</g>
</svg>
